<svg width="31" height="32" viewBox="0 0 31 32" fill="none" xmlns="http://www.w3.org/2000/svg">
<rect x="0.375" width="30" height="32" rx="15" fill="#F1F5F9"/>
<path fill-rule="evenodd" clip-rule="evenodd" d="M7.875 15C7.875 18.86 10.8188 22 14.4375 22C18.0562 22 21 18.86 21 15C21 11.14 18.0562 8 14.4375 8C10.8188 8 7.875 11.14 7.875 15ZM9.75 15C9.75 12.243 11.8528 10 14.4375 10C17.0222 10 19.125 12.243 19.125 15C19.125 17.757 17.0222 20 14.4375 20C11.8528 20 9.75 17.757 9.75 15Z" fill="#64748B"/>
<path d="M22.6003 22.293L20.3569 19.9C19.9716 20.429 19.5272 20.903 19.0312 21.314L21.2747 23.707C21.4575 23.902 21.6975 24 21.9375 24C22.1775 24 22.4175 23.902 22.6003 23.707C22.9669 23.316 22.9669 22.684 22.6003 22.293Z" fill="#94A3B8"/>
</svg>
