<svg width="31" height="32" viewBox="0 0 31 32" fill="none" xmlns="http://www.w3.org/2000/svg">
<rect x="0.625" width="30" height="32" rx="15" fill="#F1F5F9"/>
<path d="M25.9375 9C28.1029 9 29.75 7.14736 29.75 5C29.75 2.85264 28.1029 1 25.9375 1C23.7721 1 22.125 2.85264 22.125 5C22.125 7.14736 23.7721 9 25.9375 9Z" fill="#F43F5E" stroke="white" stroke-width="2"/>
<path d="M23.1248 17.5C23.1248 16.513 22.7226 15.603 22.0495 14.861C21.3661 18.348 18.1186 21 14.2186 21C14.122 21 14.0292 20.982 13.9326 20.979C14.9039 21.617 16.1461 22 17.4998 22C17.9207 22 18.3304 21.96 18.7251 21.89L22.1873 24V20H22.1761C22.7751 19.285 23.1248 18.425 23.1248 17.5Z" fill="#94A3B8"/>
<path d="M14.2188 8C10.8531 8 8.125 10.462 8.125 13.5C8.125 14.575 8.47188 15.574 9.0625 16.422V20L11.5928 18.458C12.3888 18.802 13.2775 19 14.2188 19C17.5844 19 20.3125 16.538 20.3125 13.5C20.3125 10.462 17.5844 8 14.2188 8Z" fill="#64748B"/>
</svg>
