<svg width="31" height="32" viewBox="0 0 31 32" fill="none" xmlns="http://www.w3.org/2000/svg">
<rect x="0.875" width="30" height="32" rx="15" fill="#F1F5F9"/>
<path fill-rule="evenodd" clip-rule="evenodd" d="M15.875 8C11.75 8 8.375 11.6 8.375 16C8.375 20.4 11.75 24 15.875 24C20 24 23.375 20.4 23.375 16C23.375 11.6 20 8 15.875 8ZM15.875 20C15.3125 20 14.9375 19.6 14.9375 19C14.9375 18.4 15.3125 18 15.875 18C16.4375 18 16.8125 18.4 16.8125 19C16.8125 19.6 16.4375 20 15.875 20ZM14.9375 12V17H16.8125V12H14.9375Z" fill="#64748B"/>
</svg>
